<?xml version="1.0" encoding="UTF-8"?>
<svg width="92px" height="100px" viewBox="0 0 92 100" version="1.1" xmlns="http://www.w3.org/2000/svg" xmlns:xlink="http://www.w3.org/1999/xlink">
    <!-- Generator: Sketch 48.1 (47250) - http://www.bohemiancoding.com/sketch -->
    <title>Rectangle 5</title>
    <desc>Created with Sketch.</desc>
    <defs></defs>
    <g id="Artboard-3" stroke="none" stroke-width="1" fill="none" fill-rule="evenodd" transform="translate(-760.000000, -270.000000)">
        <path d="M770.621416,344.29547 C772.080096,344.165547 783.117104,344.258997 783.117104,344.258997 C783.117104,344.258997 782.738462,350.228368 788.369568,355.605429 C792.222773,359.284798 796.789979,361.359383 802.220052,360.956512 C803.406986,360.86845 810.373025,360.194096 815.223313,354.011394 C816.575032,352.288347 821.544273,345.872094 818.432047,337.372841 C817.954038,336.067434 817.351665,333.751638 814.81416,331.028819 C813.550333,329.672696 810.34565,326.58607 805.593313,325.084432 C802.833686,324.212448 803.356902,324.548868 801.675313,323.990703 C800.502259,323.601335 795.433956,321.835702 792.532129,319.064851 C791.968082,318.526262 790.663789,317.830631 788.045982,314.327529 C785.428176,310.824426 784.564965,308.805693 784.206409,307.594547 C784.107819,307.261525 783.268561,305.222944 782.831161,303.698558 C782.521041,302.617753 780.724412,294.733649 782.763882,288.716204 C783.742447,285.828953 784.009775,284.846901 784.246843,284.547251 C784.497782,284.230068 786.032249,279.911986 788.802787,277.177303 C788.869875,277.111084 793.027935,271.135939 800.323109,268.575008 C801.208845,268.264075 803.499671,267.259713 805.960897,266.6481 C807.702766,266.215247 811.828006,265.646452 815.062774,266.171225 C816.217411,266.35854 818.88122,266.617607 820.100384,267.121163 C820.291772,267.200213 822.997972,267.967352 824.732459,268.716349 C826.889437,269.647789 832.001356,271.460632 837.874478,280.12409 C843.7476,288.787549 842.513325,296.317279 842.513325,296.317279 L830.837483,294.926541 C830.837483,294.926541 830.599326,292.691771 829.381018,289.415464 C828.16271,286.139158 827.206665,285.282196 825.475016,283.509884 C823.653223,281.645312 821.593028,280.215855 819.566401,279.393504 C817.539775,278.571153 813.913968,278.083669 812.918918,278.029017 C809.211597,277.825397 805.03828,279.219309 803.973502,279.781288 C801.792044,280.93264 801.261649,281.576056 801.070741,281.73902 C797.916681,284.431411 797.872166,284.740159 796.851171,286.169867 C795.768377,287.686112 795.096223,289.350374 795.074459,289.390304 C794.216977,290.963449 793.807634,294.329175 793.79613,294.403372 C793.536372,296.078652 793.719279,297.350582 793.725786,297.430879 C793.864408,299.141302 794.106345,300.025837 794.133887,300.212151 C794.442851,302.30222 795.597967,304.618002 796.341093,305.826685 C796.983391,306.871374 797.62242,307.617626 797.927174,308.040507 C798.617495,308.998405 800.982321,311.08904 801.815963,311.664625 C802.292501,311.993649 803.024726,312.437544 803.611813,312.724891 C804.1989,313.012239 804.431329,313.048783 804.444927,313.058587 C804.835318,313.340061 805.694743,313.629292 806.198551,313.81184 C808.218952,314.543901 810.832041,314.579737 811.47675,314.715364 C812.094395,314.845298 814.045798,314.646344 814.771008,314.577226 C816.968285,314.36781 819.311069,313.458919 819.689285,313.148364 C819.628019,313.072953 812.338936,304.100952 811.198449,302.697148 C811.240589,302.789759 817.225054,297.918012 820.54081,295.241696 C823.103005,298.61491 833.607395,311.350188 834.431314,312.426161 C835.378363,313.662932 836.333631,314.736438 836.513336,314.961312 C836.704739,315.167047 825.20526,324.332575 825.215541,324.374707 C825.250393,324.517523 825.438644,324.675728 825.556742,324.841496 C825.671848,325.003065 825.818762,325.180122 825.982404,325.381609 C826.313943,325.789818 826.513091,326.070592 826.812156,326.432582 C827.052106,326.723018 827.294716,327.029202 827.518323,327.347695 C828.447385,328.670994 829.398797,331.004537 829.550267,331.264784 C830.329572,332.60375 831.961552,337.736322 832.148313,341.516248 C832.266265,343.90353 832.299173,345.874196 832.182329,346.378199 C831.59175,348.925634 831.224589,352.296762 830.182433,354.631259 C828.742097,357.857706 827.056553,360.796703 825.19904,362.94312 C821.75369,366.924335 817.907403,369.669055 814.537979,371.161455 C810.028261,373.15892 806.574793,373.659228 806.562502,373.659838 C803.97795,373.788167 800.260364,374.135246 798.143605,373.852588 C785.417068,372.15317 778.212169,364.4831 774.772266,357.615859 C770.728041,349.542178 770.621416,344.29547 770.621416,344.29547 Z" id="Rectangle-5" fill="#000000" transform="translate(806.621416, 319.960556) rotate(129.000000) translate(-806.621416, -319.960556) "></path>
    </g>
</svg>